<svg xmlns="http://www.w3.org/2000/svg" width="354.721" height="354.721" viewBox="0 0 739 739"><path fill="#fff" stroke="#fff" d="M301 23c.28-3.37.72-6.82 1.95-10 2.09-5.38 5.47-8.47 11.05-9.95 13.38-3.54 24 5.47 34 13.08 3.48 2.65 4.85 3.8 8 6.88 3.78 3.71 5.62 5.76 8.8 9.97.91 1.21 2.47 3.82 4.2 3.82 1.76 0 3.19-2.59 4.09-3.82 2.92-4 5.34-6.53 8.91-9.94 2.99-2.86 4.74-4.21 8-6.67 10.8-8.15 28.06-22.1 40.89-9.26 1.82 1.81 2.99 3.52 3.98 5.89 1.31 3.16 1.85 6.61 2.13 10 9.4-3.98 21.49-9.56 30.9-2.35 6.03 4.62 4.89 11.31 9.24 12.45 1.83.48 8.56-1.26 10.86-1.68 10.44-1.88 22-3.41 28.09 7.59 1.25 2.26 2.31 5.42 2.57 7.99.26 2.58-.22 4.5-.66 7 9.44.03 31.5 2.26 38.98 7.65 8.32 5.98 6.46 13.09 9.74 16.93 3.29 3.85 11.34 3.74 17.19 7.75 6.55 4.49 5.77 10.43 13.09 14.4 8.78 4.75 41.86 8.1 39.66 30.27l-2.46 11c-.7 7.27 2.38 4.63-1.2 17 7.68 2.56 22 6.43 27.29 12.33l9.32 17.67c3.64 5.91 8.99 11.72 9.26 19 .41 11.26-7.8 14.97-7.78 23 .01 8.22 6.39 7.67 9.84 18 1.1 3.92 1.23 7.03 0 11-3.12 11.9-16.29 13.77-26.93 14 6.75 10.94 3.64 13.52 5.85 19 1.86 4.6 7.32 8.2 10.68 17 2.77 7.22.18 9.13.59 15 .38 5.44 4.2 10.63 3.54 17-.77 7.48-4.99 10.85-7.56 16-1.67 3.33-2.06 7.05-4.46 10.96-4.48 7.28-11.95 6.48-15.34 8.97-1.2.88-7.45 12.23-8.22 14.07-1.85 4.43-.3 7.69-2.64 14-1.98 5.35-5.62 8.61-6.68 12-1.35 4.33 1.47 6.65-.81 14-4.57 14.69-17.84 13.93-29.95 10 .65 8.07 2.41 17.03-4.34 23.47-3.84 3.67-9.39 4.78-13.48 8.74-4.64 4.49-5.29 9.67-11.2 14.51-5.5 4.52-10.82 3.32-14.97 5.45-3.81 1.95-5.05 5.05-11.01 8.49-7.37 4.25-15.58 5.9-21.2 13.43-3.88 5.2-4.03 12.69-5.08 18.91-1.5 8.88-4.19 9.99-6.62 17-2.18 6.28-1.4 11.26-6.58 16.53-9.53 9.7-21.49 4.86-30.52-2.53 0 18.81 5.91 68.47 10.12 87l4.68 23c1.59 7.93 3.61 13.31-.71 20.96-6.42 11.38-20.72 10.76-30.09 3.67-4.63-3.5-10.63-10.52-17.09-8.02-4.47 1.74-13.14 9-16.91 12.34-9.34 8.28-22.13 21.17-33 26.68-12.99 6.58-35.26 6.12-48-.98-7.94-4.42-16.22-13.35-23-19.48l-41-35.71c-3.12-2.49-7.05-5.22-11-5.94-5.1-1.23-8.68.59-13 0-10.51-.95-18.74-9.7-17.66-20.52 1.51-15.18 14.61-15.77 20.09-27 2.67-5.45 3.97-17.69 4.72-24 1.67-13.94 2.85-17.15 2.85-32-5.74 4.59-7.96 7.86-16 8.66-7.99.8-15.54-4.41-18.52-11.66l-2.92-10c-2.42-5.06-5.93-6.96-7.42-16-.84-5.1-.88-13.98-3.23-17.96-1.28-2.19-2.9-3.55-4.64-5.32-9.85-10.05-10.88-6.88-21.27-13.07-3.75-2.23-6.5-5.46-10-6.95l-10-3c-6.23-3.19-10.75-11.48-15.61-16.49-4.36-4.48-8.99-4.91-13.06-8.74-7.16-6.73-4.41-15.09-4.33-23.47-4.08 1.34-8.66 3.05-13 2.67-10.11-.88-16.79-8.55-16.82-18.67-.01-3.01 1.04-7.06 1.82-10-13.25-7.12-9.47-15.69-11.72-22l-7.67-13.87c-3.57-5.94-11.14-2.87-16.25-11.17-2.4-3.91-2.79-7.63-4.46-10.96-2.8-5.61-7.66-9.71-7.72-17-.05-5.48 3.18-11.11 3.57-15 .52-5.16-2.25-7.44 1.18-16 3.51-8.78 9.21-12.04 11.22-17 1.89-4.68-.52-8.48 4.85-19-4.58-.01-8.58-.12-13-1.6-10.45-3.47-16.33-13.77-12.94-24.4 2.86-9 9.9-9.91 8.7-18-1.02-6.87-8.91-9.96-9.55-20-.59-9.23 5.06-14.07 9.7-21l9.8-17.67c5.32-5.92 19.58-9.76 27.29-12.33-3.7-12.8-.37-10.64-.61-18l-2.2-11c-.66-8.11 4.2-14.45 10.81-18.53 10.97-6.79 25.46-7.94 30.9-12.74 4.63-4.1 4.39-8.37 10.19-12.26 6.1-4.09 11.99-3.82 15.77-6.98 4.63-3.87 2.87-10.17 8.67-15.96 4.34-4.34 10.67-5.47 16.47-6.45 8.1-1.37 17.85-3.01 26-3.08-.63-3.55-1.16-5.33-.53-9 3.87-22.78 29.59-14.89 44.53-10 .56-2.73 1.12-5.51 2.44-8 8.11-15.37 23.55-9.09 35.56-4Zm19-3c.3 4.43 5.79 10.1 8.3 14 6.06 9.41 15.22 26.61 12.7 38-14.11-6.31-39.39-31.12-60-37 9.68 15.24 19.51 16.27 26 38-6.86-1.29-15.49-6.59-22-9.74-9.3-4.5-19.08-8.12-29-10.97-4.66-1.34-14.57-4.53-19-3.29l28 16.03c13.91 9.48 18.33 14.3 30 25.97-20.53-16.82-46.63-19.04-72-19-6.55.01-27.43 2.62-33 5l29 3.27c17.74 2.74 39.39 8.88 55 17.73-15.55-2.1-31.26-4.98-47-5l-29 1.92c-8.04.64-29.35 3.66-36 7.08l12 .91c17.59 1.2 35.99 2.89 52 11.09-6.51-1.58-7.23-.62-13-1.17-22.2-2.11-45.38.26-67 5.8-7.05 1.81-21.5 6.12-27 10.37l30-3c18.08-.03 27.25.8 44 8v2c-7.57 1.36-12.46.99-20 1-10.42.02-26.1 2.41-36 5.67-4.83 1.59-14.21 4.18-17 8.33 16.56-3.02 34.97-5.81 51 1-9.82.21-21.66 2.62-31 5.67-5.12 1.67-9.07 2.45-13 6.33l13-1 22 2-6 4.98-21 2.19-28 5.46L90 184c18.67 0 32.98-1.65 50 8l-15 1-26 1.85c-5.45.65-12.57.75-17 4.15 13.01 0 29.76 1.52 42 6l-32 .93L75 209l31 4.27 26 3.73-3 8.96c-10-1.75-19.97-.96-30 0-4.7.4-9.96.42-14 3.04l34 6.17 8 3.29 18 3.54c-20.73 0-33.57.14-54 6-6.1 1.75-12.9 3.06-18 7l55 5h16c-6.98 5.56-11.19 5.29-19 8.45-9.43 3.82-20.95 10.28-27 18.55 10.27-2.93 20.87-10.6 38-12-4.89 8.25-12.03 9.32-20 13.87-9.12 5.22-27.68 19.99-32 29.13l20-11.73 25-9.27c-2.57 7.36-11.82 10.55-18 14.75-9.27 6.29-25.3 19.24-30 29.25 19.01-10.67 19.42-15.13 43-23-11.19 10.28-28.65 25.52-34 40l13-10.33L126 333c-.37 7.3-11.39 12.36-15 20l17-10c-1.07 6.59-4.49 8.05-8.54 13-4.53 5.53-8.49 12.1-10.46 19l23-16c-.96 6.04-4.96 9.48-7.73 15-3.97 7.9-6.09 16.27-7.27 25l10.81-14L138 374c2.63 8.99 9.93 15.73 11.06 18.71 1.22 3.24-4.17 7.23-6.22 9.38-5.77 6.01-14.16 15.65-15.84 23.91 10.59-6.09 23.6-18.69 36-20l-13 22 25-6c-9.15 9.15-17.76 16.29-19 30l23-19c-6.34 6.7-10.54 13.6-11 23 8.15-5.83 15.25-16.29 26-17-8.66 3.91-19.1 16.62-21 26 12.43-8.86 12.72-13.32 29-19-10.26 8.91-17.32 15.28-23 28l13-7c1.82 4.96 6.36 14.36 10 18l1-6 5 10 4-10c2.46 5.03 10.03 17.51 14 21v-15l8.76 24 4.24 26c3.63-8.54 4.21-17.84 4.78-27-.12-3.05-.44-3.78 0-7l2.21 20-2.99 21c6.32-4.06 9.06-18.1 12-25-.05 15.55-4.14 24.68-8 39 7.06-5.52 19.5-25.22 22-34l9 9-1-12c6.08 15.29 6 27.88 6 44 0 17.02.05 25.86-2.75 43-1.03 6.26-4.07 23.01-6.81 28-4.49 8.21-12.07 11.07-18.44 16.76 5.4-.01 10.59-1.4 16 0 12.29 2.38 20.82 10.32 30 18.24l32 28.28c8.41 7.42 16.44 18.07 28 20.25 18.13 3.43 24.73-4.43 37-15.25l23-19.41c6.2-4.64 12.9-10.47 21-10.82 12.31-.54 20.65 8.68 30 14.95l-4-20-6.58-36-4.51-43-1.15-28v-8c.29-10.89.83-24.95 7.24-34l-3 13c4.79-2.49 6.08-5.62 9-10 3.42 9.79 14.2 28.5 22 35-2.08-11.5-10.38-26.97-7-39 .63 7.03 4.81 21.28 11 25-3.08-12.22-4.96-29.17 0-41-.99 7.53-.64 15.5.8 23 .74 3.81.85 6.7 4.2 9 .04-14.23 4.7-36.37 13-48l-1 14 15-20 1 10c4.22-2.53 5.61-6.81 8-11l1 7 8-18 13 8c-2.28-11.22-13.84-22.81-23-29 14.28 3.35 18.31 11.35 29 19-2.09-11.11-11.62-20.12-20-27 16.87 7.27 13.49 9.76 25 18-.45-9.17-4.17-16.09-10-23l12.99 10.04L582 452c-4.83-16.51-7.52-18.53-20-30l25 6c-2.08-5.43-5.27-9.17-8.32-14-.88-1.38-2.68-3.92-2.15-5.64 1.06-3.48 7.72.49 9.47 1.42L611 426c-2.65-8.32-16.3-26.33-24-30l12-22 21 25c-1.02-7.56-3.42-17.18-6.81-24-2.57-5.17-7.92-10.38-8.19-16l12 7.9 11 8.1c-1.7-5.98-5.55-13.18-9.47-18-4.2-5.18-8.42-7.11-9.53-14l17 10c-4.01-11.77-14.31-10.62-16-21l22 13.9 15 12.1c-4.25-13.35-23.44-30.83-34-40 8.75 2.36 20.27 8.26 28 13.06 4.97 3.09 9.5 6.84 15 8.94-6.2-10.61-20.82-22.07-31-29.12-5.37-3.71-13.99-6.41-16-12.88 19.82 3.05 34.8 15.48 44 19-4.32-9.13-21.94-22.95-31-28.13-7.96-4.55-15.12-5.63-20-13.87 14.27 1.2 25.22 8.39 38 12-5.69-7.77-18.05-14.92-27-18.55-8.07-3.27-13.23-2.37-19-9.45 10.02 2.85 35.7-.7 47-1.83 5.77-.58 17.06-1.06 22-3.17-12.43-6.04-42-11.98-56-12-5.18-.01-9.97.43-15-1l21-3.62 16-4.77 23-4.61-26-3-15.9-1.02L604 217l39-5.58c5.21-.73 13.79-.7 18-3.42l-28-3-21-1 27-4.72 14-1.28c-7.31-2.67-29.86-4.96-38-5-6.55-.03-11.6-.13-18-2 10.72-3.06 15.2-6.85 28-7 5.41-.06 16.43.81 21-1-12.34-4.11-25.04-8.24-38-9.85l-26-2.75c-2.8-1.03-4.9-3.38-7-5.4l19-2h15c-19.2-9.95-32.42-8.46-44-12l14-2.71c10.5-1.37 26.7.11 37 2.71-2.98-4.6-10.93-6.32-16-8-10.18-3.36-24.29-5.98-35-6-6.65-.01-13.5.58-20-1 4.96-6.19 10.55-7.03 18-8.25 14.33-2.34 24.68-2.14 39-.59 4.63.51 11.8 2.71 16 1.84-18.35-10.4-54.81-16.97-76-17h-11c-7.03.03-12 1.99-19 0l32-7.85 29-3.15-39-6.96h-8L516 93l-33 2.15L464 97l16-6.58c10.39-3.92 21.08-7.13 32-9.16l22-3.09c5.02-.48 7.51.73 12-2.17l-18-2.83c-31.83-3.13-59-1.1-86 17.83 12.38-12.38 20.05-19.78 35-29.31L501 48c-15.37 1.26-37.07 9.52-51 16.26l-12 6.13c-1.32.66-3.83 2.11-5.19.79-2.03-1.96 2.11-8.34 3.25-10.18 7.29-11.74 13.74-15.81 20.94-26-12.13 2.88-32.69 18.39-43 26.13-2.73 2.04-12.54 10.52-15.48 9.43-3.8-1.25-.58-10.97 0-13.56 6.24-20.12 15.57-26.82 19.48-36-6.79 2.16-12.56 7.14-18 11.61-28.47 23.44-35.08 54.92-18 87.39h2c8.19-14.57 17.77-22.8 32-31-11.34 11.59-22.59 25.2-24 42 13.32-9.53 5.88-7.45 24-16-16.6 14.41-23.93 25.5-24 48 2.91-1.96 8.85-14.58 12.24-19 9.11-11.91 20-20.24 33.76-26.06 17.36-7.5 33.55-5.71 51 0 28.17 9.37 50.31 27.34 71 48.06 6.6 6.61 12.59 13.69 18.4 21l18.6 27c-13.62-14.28-21.2-24.39-39-34.57-11.4-6.52-27.83-11.28-41-11.43-23.26-.26-39.03 9.98-55 26-24.64 24.72-43.94 65.68-44 101v18l2 21-15.72-37c-8.83-20.45-17-41.57-23.14-63l-9.22-40c-.93-5.63-1.11-16.65-3.92-21-.09 30.81-15.29 77.23-26.8 106L317 333c8.89-48.83-2.91-99.48-37.84-135.91-15.64-16.32-31.57-28.82-55.16-29.09-16.15-.18-32.14 4.34-46 12.6-16.09 9.59-27.26 22.09-39 36.4 23.53-39.22 52.37-71.77 94-92.24 23.12-11.37 46.77-16.63 71-5.45 12.16 5.61 23.36 15.75 30.96 26.69L345 163c0-21.92-5.84-33.92-23-48 16.46 7.76 10.27 5.9 23 15-.39-17.35-12.52-29.52-24-41 13.63 7.29 26.02 16.76 33 31h2c5.58-12.96 8.98-16.89 9-32 .05-31.79-18.1-52.9-45-68Zm190 93h1l-1 1zm69 114c5.79-4.02 7.87-6.27 13 0zm-433 0c4.66-5.07 7.86-3.97 12 1zm67 .21h8c10.24-.23 19.54 1.44 29 5.51 34.03 14.65 51.58 49.5 52 85.28.18 15.61-3.04 35.91-9.9 50-2.83 5.82-10.03 13.73-14.3 19-3.96 4.9-18.63 22.41-22.8 25.35-6.88 4.86-24.56 7.94-33 7.61-10.4-.4-22.59-3.32-32-7.74-69.07-32.47-71.1-139-5-175.78 8.68-4.83 18.27-7.42 28-9.23Zm294 .21c18.93-2.31 35.36 2.76 51 13.25 4.53 3.04 12.14 8.61 15.83 12.42 16.03 16.51 26.13 41.9 26.17 64.91.01 7.93-.03 15.14-1.46 23-2.34 12.89-5.99 21.63-12.24 33-10.27 18.72-21.53 30.4-41.3 39.14-10.44 4.61-21.58 6.99-33 6.86-8.22-.1-22.28-3.1-29-7.8-5.93-4.14-18.15-19.03-23.25-25.2-5.51-6.67-11.54-13.09-15.26-21-4.27-9.09-5.62-17.26-7.24-27-.91-5.46-2.18-12.57-2.25-18-.41-35.43 15.96-70.92 49-86.89 9.33-4.51 13.02-5.18 23-6.69Zm-286 28.9c-36.57 8.21-40.4 58.39-8 72.64 5.05 2.22 8.52 2.97 14 3.04 7.51.08 12.11-.04 19-3.63 29.39-15.31 27.21-57.04-3-70.03-6.54-2.82-14.99-2.78-22-2.02Zm294-.32c-15.17 0-24.36.75-35.18 13.17-13.7 15.71-11.33 42.43 5.18 55.3 8.18 6.38 16 7.64 26 7.53 22.51-.27 38.87-22.38 35.08-44-1.28-7.31-4.13-16.39-11.08-20-1.44 8.82-6.95 8.69-13 3.67-6.42-5.33-7.25-7.78-7-15.67ZM264 418c5.23-8.24 18.71-22.03 25.72-30l51.25-57 18.96-20.28c2.68-2.59 5.03-6.19 9.07-6.52 5.47-.44 8.78 4.01 11.74 7.8l15.68 18 50.66 57c5.72 6.21 23.73 25.06 26.92 31-12.65.01-24.78 2.62-35 10.53-9.53 7.37-14.08 16.35-19.85 26.47l-20.29 36-15.87 28c-3.25 5.39-7.11 9.92-13.99 9.8-6.32-.1-9.72-4.97-12.77-9.8l-16.46-29-22.35-39c-4.69-7.58-8.42-14.78-15.42-20.68-10.81-9.11-24.16-12.31-38-12.32Zm390-101h-1l1 1zm-322 42c-8.9 4.21-21.08 19.86-21.91 30-.35 4.36-1.04 13.64 4.94 14.42 4.89.64 6.52-5.86 7.54-9.42l4.85-19zm76 0c-1.1 4.07.96 7.06 2.09 11l6.63 25c1.04 3.43 2.63 9.02 7.28 8.42 6.33-.8 5.85-8.9 5.08-13.42-2.05-11.96-11.37-24.05-21.08-31Zm-200 89c23.32-10.05 50.41-24.11 76-13.13 4.71 2.02 9.25 4.6 12.91 8.22 4.63 4.59 15.2 20.68 19.43 26.91l29.52 42c5.97 8.33 13.3 21.8 25.14 21.37 6.08-.21 11.37-5.82 14.71-10.37l22.31-32L428 462c5.42-8.13 10.12-16.41 18-22.47 19.15-14.74 45.83-7.46 66 .67 6.04 2.44 15.03 5.85 20 9.8-24.1-3.25-29.19-7.32-57-7-8.3.1-15.49 1.95-22 7.33-8.16 6.73-13.39 16.14-19.42 24.67l-32.29 45c-6.44 9.04-15.43 23.98-27.29 25.79-18.83 2.87-25.6-12.06-35.13-24.79l-37.73-52c-9.72-13.63-17.4-25.78-36.14-26-12.75-.15-25.41 1-38 3.08-5.03.83-14.5 3.57-19 1.92Zm-2 1h1l-1 1z"/></svg>